<svg width="900" height="200" xmlns="http://www.w3.org/2000/svg">
  <defs><style>.ds{font-family:'Courier New',monospace;}</style></defs>
  <rect width="900" height="200" fill="#050505"/>
  <rect x="10" y="10" width="880" height="30" rx="4" fill="#001020" stroke="#00E5FF" stroke-width="0.8"/>
  <text x="50" y="29" class="ds" font-size="11" fill="#00E5FF" font-weight="bold">COLUMN</text>
  <text x="220" y="29" class="ds" font-size="11" fill="#00E5FF" font-weight="bold">DTYPE</text>
  <text x="350" y="29" class="ds" font-size="11" fill="#00E5FF" font-weight="bold">RANGE / VALUES</text>
  <text x="580" y="29" class="ds" font-size="11" fill="#00E5FF" font-weight="bold">DESCRIPTION</text>
  <rect x="10" y="42" width="880" height="28" rx="2" fill="#0A0A0A" stroke="#003030" stroke-width="0.5"/>
  <text x="50" y="61" class="ds" font-size="10" fill="#00FFAA">SalesID</text>
  <text x="220" y="61" class="ds" font-size="10" fill="#BD00FF">int64</text>
  <text x="350" y="61" class="ds" font-size="10" fill="#FFD700">1 → 200</text>
  <text x="580" y="61" class="ds" font-size="10" fill="#888">Unique sequential identifier</text>
  <rect x="10" y="72" width="880" height="28" rx="2" fill="#050508" stroke="#003030" stroke-width="0.5"/>
  <text x="50" y="91" class="ds" font-size="10" fill="#00FFAA">Product</text>
  <text x="220" y="91" class="ds" font-size="10" fill="#BD00FF">object</text>
  <text x="350" y="91" class="ds" font-size="10" fill="#FFD700">Product A–E</text>
  <text x="580" y="91" class="ds" font-size="10" fill="#888">Product category (5 types)</text>
  <rect x="10" y="102" width="880" height="28" rx="2" fill="#0A0A0A" stroke="#003030" stroke-width="0.5"/>
  <text x="50" y="121" class="ds" font-size="10" fill="#00FFAA">Region</text>
  <text x="220" y="121" class="ds" font-size="10" fill="#BD00FF">object</text>
  <text x="350" y="121" class="ds" font-size="10" fill="#FFD700">North/South/East/West/Central</text>
  <text x="580" y="121" class="ds" font-size="10" fill="#888">Geographic sales region</text>
  <rect x="10" y="132" width="880" height="28" rx="2" fill="#050508" stroke="#003030" stroke-width="0.5"/>
  <text x="50" y="151" class="ds" font-size="10" fill="#00FFAA">Sales</text>
  <text x="220" y="151" class="ds" font-size="10" fill="#BD00FF">int64</text>
  <text x="350" y="151" class="ds" font-size="10" fill="#FFD700">108 → 997 (mean ≈ 550)</text>
  <text x="580" y="151" class="ds" font-size="10" fill="#888">Revenue in units (synthetic)</text>
  <rect x="10" y="162" width="880" height="28" rx="2" fill="#0A0A0A" stroke="#003030" stroke-width="0.5"/>
  <text x="50" y="181" class="ds" font-size="10" fill="#00FFAA">Year</text>
  <text x="220" y="181" class="ds" font-size="10" fill="#BD00FF">int64</text>
  <text x="350" y="181" class="ds" font-size="10" fill="#FFD700">2021 · 2022 · 2023</text>
  <text x="580" y="181" class="ds" font-size="10" fill="#888">Fiscal year of the sale</text>
</svg>
